<?xml version="1.0" encoding="UTF-8"?>
<!DOCTYPE svg PUBLIC "-//W3C//DTD SVG 1.1//EN" "http://www.w3.org/Graphics/SVG/1.1/DTD/svg11.dtd">
<svg xmlns="http://www.w3.org/2000/svg" version="1.1" width="644px" height="413px" style="shape-rendering:geometricPrecision; text-rendering:geometricPrecision; image-rendering:optimizeQuality; fill-rule:evenodd; clip-rule:evenodd" xmlns:xlink="http://www.w3.org/1999/xlink">
<g><path style="opacity:1" fill="#f9fcfa" d="M 256.5,235.5 C 242.578,229.697 236.245,219.03 237.5,203.5C 240.571,184.12 251.904,175.62 271.5,178C 282.26,180.255 288.26,186.755 289.5,197.5C 285.445,197.824 281.445,197.491 277.5,196.5C 276.747,194.247 275.414,192.413 273.5,191C 266.279,187.003 259.779,187.836 254,193.5C 250.547,200.369 249.547,207.703 251,215.5C 252.248,218.579 254.081,221.246 256.5,223.5C 267.966,228.906 274.966,225.573 277.5,213.5C 281.5,213.5 285.5,213.5 289.5,213.5C 289.699,216.941 289.199,220.274 288,223.5C 280.443,234.85 269.943,238.85 256.5,235.5 Z"/></g>
<g><path style="opacity:1" fill="#fbfdfc" d="M 348.5,178.5 C 359.222,178.125 369.889,178.625 380.5,180C 389.892,183.58 395.392,190.413 397,200.5C 399.679,215.117 394.846,226.117 382.5,233.5C 379.135,234.04 375.802,234.706 372.5,235.5C 364.167,235.5 355.833,235.5 347.5,235.5C 347.17,216.326 347.503,197.326 348.5,178.5 Z"/></g>
<g><path style="opacity:1" fill="#f9fbfa" d="M 436.5,178.5 C 440.167,178.5 443.833,178.5 447.5,178.5C 447.5,181.5 447.5,184.5 447.5,187.5C 443.833,187.5 440.167,187.5 436.5,187.5C 436.5,184.5 436.5,181.5 436.5,178.5 Z"/></g>
<g><path style="opacity:1" fill="#f9fcfb" d="M 176.5,191.5 C 180.886,193.779 185.052,196.446 189,199.5C 195.783,201.458 202.616,203.291 209.5,205C 210.38,206.356 210.714,207.856 210.5,209.5C 211.833,209.5 213.167,209.5 214.5,209.5C 214.5,212.833 214.5,216.167 214.5,219.5C 213.167,219.5 211.833,219.5 210.5,219.5C 210.5,220.833 210.5,222.167 210.5,223.5C 207.15,223.665 203.817,223.498 200.5,223C 198.586,215.852 194.252,212.685 187.5,213.5C 183.626,214.369 180.959,216.703 179.5,220.5C 170.095,222.433 160.428,223.1 150.5,222.5C 147.848,214.674 142.515,211.84 134.5,214C 131.8,215.857 130.134,218.357 129.5,221.5C 124.595,222.445 119.595,222.779 114.5,222.5C 114.5,221.5 114.5,220.5 114.5,219.5C 118.167,219.5 121.833,219.5 125.5,219.5C 125.5,218.5 125.5,217.5 125.5,216.5C 126.5,216.5 127.5,216.5 128.5,216.5C 128.5,215.167 128.5,213.833 128.5,212.5C 122.833,212.5 117.167,212.5 111.5,212.5C 111.5,211.5 111.5,210.5 111.5,209.5C 116.167,209.5 120.833,209.5 125.5,209.5C 125.5,208.167 125.5,206.833 125.5,205.5C 127.833,205.5 130.167,205.5 132.5,205.5C 132.5,204.5 132.5,203.5 132.5,202.5C 126.5,202.5 120.5,202.5 114.5,202.5C 114.5,201.167 114.5,199.833 114.5,198.5C 126.5,198.5 138.5,198.5 150.5,198.5C 150.5,197.5 150.5,196.5 150.5,195.5C 136.167,195.5 121.833,195.5 107.5,195.5C 107.232,193.901 107.566,192.568 108.5,191.5C 121.167,191.5 133.833,191.5 146.5,191.5C 146.5,190.5 146.5,189.5 146.5,188.5C 139.5,188.5 132.5,188.5 125.5,188.5C 125.5,187.167 125.5,185.833 125.5,184.5C 138.504,184.333 151.504,184.5 164.5,185C 168.655,186.91 172.655,189.077 176.5,191.5 Z"/></g>
<g><path style="opacity:1" fill="#073762" d="M 359.5,189.5 C 378.485,186.653 386.652,194.653 384,213.5C 383.169,218.681 380.336,222.181 375.5,224C 370.177,224.499 364.844,224.666 359.5,224.5C 359.5,212.833 359.5,201.167 359.5,189.5 Z"/></g>
<g><path style="opacity:1" fill="#fafcfb" d="M 311.5,193.5 C 333.244,192.754 341.744,203.087 337,224.5C 332.47,232.604 325.47,236.604 316,236.5C 302.743,234.907 296.243,227.407 296.5,214C 296.74,203.604 301.74,196.771 311.5,193.5 Z"/></g>
<g><path style="opacity:1" fill="#fcfdfd" d="M 416.5,216.5 C 415.51,222.31 415.177,228.31 415.5,234.5C 412.167,234.5 408.833,234.5 405.5,234.5C 405.5,221.167 405.5,207.833 405.5,194.5C 408.833,194.5 412.167,194.5 415.5,194.5C 415.337,196.857 415.503,199.19 416,201.5C 419.431,195.534 424.598,192.867 431.5,193.5C 431.5,196.833 431.5,200.167 431.5,203.5C 421.806,202.532 416.806,206.866 416.5,216.5 Z"/></g>
<g><path style="opacity:1" fill="#fafcfb" d="M 534.5,227.5 C 526.457,236.425 516.79,238.592 505.5,234C 495.838,225.822 493.171,215.656 497.5,203.5C 500.517,199.15 504.517,195.984 509.5,194C 527.335,191.667 536.335,199.501 536.5,217.5C 526.833,217.5 517.167,217.5 507.5,217.5C 507.298,219.989 507.798,222.323 509,224.5C 514.929,228.767 520.429,228.267 525.5,223C 528.817,222.502 532.15,222.335 535.5,222.5C 535.371,224.216 535.038,225.883 534.5,227.5 Z"/></g>
<g><path style="opacity:1" fill="#d1e7de" d="M 405.5,194.5 C 405.5,207.833 405.5,221.167 405.5,234.5C 408.833,234.5 412.167,234.5 415.5,234.5C 415.177,228.31 415.51,222.31 416.5,216.5C 416.5,222.833 416.5,229.167 416.5,235.5C 412.5,235.5 408.5,235.5 404.5,235.5C 404.171,221.656 404.504,207.99 405.5,194.5 Z"/></g>
<g><path style="opacity:1" fill="#f8fbfa" d="M 446.5,194.5 C 446.5,207.833 446.5,221.167 446.5,234.5C 443.167,234.5 439.833,234.5 436.5,234.5C 435.504,221.344 435.171,208.01 435.5,194.5C 439.167,194.5 442.833,194.5 446.5,194.5 Z"/></g>
<g><path style="opacity:1" fill="#daebe4" d="M 446.5,194.5 C 447.496,207.99 447.829,221.656 447.5,235.5C 443.629,235.815 439.962,235.482 436.5,234.5C 439.833,234.5 443.167,234.5 446.5,234.5C 446.5,221.167 446.5,207.833 446.5,194.5 Z"/></g>
<g><path style="opacity:1" fill="#fafcfb" d="M 484.5,194.5 C 487.167,194.5 489.833,194.5 492.5,194.5C 492.371,196.216 492.038,197.883 491.5,199.5C 487.285,211.477 483.285,223.477 479.5,235.5C 474.901,235.8 470.401,235.467 466,234.5C 461.796,221.388 457.296,208.388 452.5,195.5C 456.445,194.509 460.445,194.176 464.5,194.5C 467.028,203.584 469.861,212.584 473,221.5C 475.667,212.833 478.333,204.167 481,195.5C 482.011,194.663 483.178,194.33 484.5,194.5 Z"/></g>
<g><path style="opacity:1" fill="#073762" d="M 314.5,201.5 C 319.592,201.093 323.425,203.093 326,207.5C 329.191,215.294 327.691,221.794 321.5,227C 316.192,228.421 312.025,226.921 309,222.5C 305.614,213.889 307.448,206.889 314.5,201.5 Z"/></g>
<g><path style="opacity:1" fill="#073762" d="M 513.5,201.5 C 519.735,201.122 523.735,203.955 525.5,210C 519.509,210.499 513.509,210.666 507.5,210.5C 507.759,206.309 509.759,203.309 513.5,201.5 Z"/></g>
</svg>
