<?xml version="1.0" standalone="no"?>
<!DOCTYPE svg >
<svg version="1.0" xmlns="http://www.w3.org/2000/svg"
 width="512.000000pt" height="512.000000pt" viewBox="0 0 512.000000 512.000000"
 preserveAspectRatio="xMidYMid meet">

<g transform="translate(0.000000,512.000000) scale(0.100000,-0.100000)"
fill="#0b5394" stroke="none">
<path d="M1922 5102 c-66 -24 -118 -65 -159 -126 -47 -68 -53 -102 -53 -281
l0 -161 -88 -37 c-347 -147 -698 -425 -937 -743 -384 -510 -545 -1167 -439
-1794 77 -459 296 -896 612 -1222 l94 -97 -249 -3 c-236 -3 -251 -4 -300 -27
-63 -28 -136 -103 -165 -169 -29 -65 -29 -179 0 -244 29 -66 102 -141 165
-169 l52 -24 2100 0 c2041 0 2101 1 2149 19 58 22 128 83 161 140 91 159 21
369 -150 448 l-50 23 -1155 6 c-1267 6 -1200 3 -1425 68 -535 156 -957 560
-1139 1090 -162 470 -106 991 152 1426 108 182 316 404 489 523 50 34 98 65
107 68 14 5 16 -50 18 -513 l3 -518 23 -43 c35 -66 88 -119 150 -149 76 -38
191 -40 267 -5 93 43 163 130 184 230 7 35 11 251 11 636 l0 584 31 6 c41 8
317 8 357 0 l31 -6 3 -617 c3 -609 3 -617 25 -663 31 -67 104 -142 166 -169
79 -35 192 -34 269 4 62 30 115 83 150 149 l23 43 3 518 c2 463 4 518 18 513
58 -22 216 -148 335 -266 309 -307 469 -661 499 -1101 15 -206 28 -248 105
-324 45 -46 73 -65 114 -78 164 -52 328 18 399 171 25 53 27 65 25 188 -8 659
-321 1304 -848 1749 -153 129 -437 300 -597 360 l-46 17 -4 182 c-3 166 -5
185 -26 224 -35 66 -88 119 -150 149 -48 24 -69 28 -137 28 -102 -1 -166 -27
-230 -96 -66 -70 -86 -122 -92 -238 l-6 -96 -208 0 -209 0 0 62 c0 127 -32
213 -107 285 -80 78 -216 107 -321 70z"/>
</g>
</svg>
